<svg xmlns="http://www.w3.org/2000/svg" viewBox="0 0 474 72" width="474" height="72" role="img" aria-label="GoActive Bucharest">
<title>GoActive Bucharest</title>
<g transform="scale(1.24138) translate(-4 -4)"><path d="M20 4H44A16 16 0 0 1 60 20V36A16 16 0 0 1 44 52H18L4 62V20A16 16 0 0 1 20 4Z" fill="#0A0A10"/><path d="M21 39L41 19M24 19H41V36" stroke="#D4FF3F" fill="none" stroke-width="7" stroke-linecap="butt" stroke-linejoin="miter"/></g><g transform="translate(91.52 0)"><g fill="none" stroke="#0A0A10" stroke-width="10" stroke-linecap="butt" stroke-linejoin="miter"><path transform="translate(0 0)" d="M45 5H22A17 17 0 0 0 5 22A17 17 0 0 0 22 39H40V27H29"/><path transform="translate(53 0)" d="M22 5H28A17 17 0 0 1 45 22A17 17 0 0 1 28 39H22A17 17 0 0 1 5 22A17 17 0 0 1 22 5Z"/><path transform="translate(111 0)" d="M5 44V22A17 17 0 0 1 22 5H28A17 17 0 0 1 45 22V44M5 27H45"/><path transform="translate(169 0)" d="M45 5H22A17 17 0 0 0 5 22A17 17 0 0 0 22 39H45"/><path transform="translate(220 0)" d="M0 5H42M21 5V44"/><path transform="translate(270 0)" d="M5 0V44"/><path transform="translate(288 0)" d="M0 0H11.5L21.5 27L31.5 0H43L27.5 44H15.5Z" fill="#0A0A10" stroke="none"/><path transform="translate(337 0)" d="M45 5H22A17 17 0 0 0 5 22A17 17 0 0 0 22 39H45M5 22H40"/></g><g fill="none" stroke="#0A0A10" stroke-width="6" stroke-linecap="butt" stroke-linejoin="miter"><path transform="translate(0 56) scale(0.4)" d="M3 0V40M3 3H19A8.5 8.5 0 0 1 19 20H3M3 37H21A8.5 8.5 0 0 0 21 20H3"/><path transform="translate(45.45 56) scale(0.4)" d="M3 0V22A15 15 0 0 0 33 22V0"/><path transform="translate(92.1 56) scale(0.4)" d="M35 3H20A17 17 0 0 0 20 37H35"/><path transform="translate(138.35 56) scale(0.4)" d="M3 0V40M31 0V40M3 20H31"/><path transform="translate(184.2 56) scale(0.4)" d="M3 40V18A15 15 0 0 1 33 18V40M3 24H33"/><path transform="translate(230.85 56) scale(0.4)" d="M3 0V40M3 3H19A8.5 8.5 0 0 1 19 20H3M16 20L29.65 38.2"/><path transform="translate(276.3 56) scale(0.4)" d="M34 3H3V37H34M3 20H28"/><path transform="translate(322.15 56) scale(0.4)" d="M33.5 3H11.5A8.5 8.5 0 0 0 11.5 20H23.5A8.5 8.5 0 0 1 23.5 37H1.5"/><path transform="translate(368.4 56) scale(0.4)" d="M0 3H34M17 3V40"/></g></g>
</svg>
